<svg width="71" height="70" viewBox="0 0 71 70" fill="none" xmlns="http://www.w3.org/2000/svg">
<rect x="1.1665" y="0.5" width="69" height="69" rx="7.5" fill="url(#paint0_linear_92_36148)"/>
<rect x="1.1665" y="0.5" width="69" height="69" rx="7.5" fill="url(#paint1_linear_92_36148)" fill-opacity="0.2"/>
<rect x="1.1665" y="0.5" width="69" height="69" rx="7.5" stroke="url(#paint2_linear_92_36148)"/>
<path d="M34.729 26.6712C34.729 26.2272 34.4964 25.826 34.2275 25.4727C33.9514 25.1101 33.7915 24.68 33.7915 24.2187C33.7915 22.9243 35.0507 21.875 36.604 21.875C38.1573 21.875 39.4165 22.9243 39.4165 24.2188C39.4165 24.68 39.2566 25.1101 38.9805 25.4727C38.7116 25.826 38.479 26.2272 38.479 26.6712C38.479 27.0866 38.8261 27.4182 39.2408 27.3935C41.6291 27.251 43.9788 26.9666 46.2817 26.5487C46.5352 26.5027 46.7964 26.5631 47.004 26.7155C47.2116 26.868 47.3473 27.0991 47.3793 27.3547C47.6594 29.5915 47.8181 31.8658 47.8488 34.1706C47.855 34.6285 47.4832 34.9999 47.0252 35C46.5812 35 46.18 34.7674 45.8267 34.4985C45.4641 34.2224 45.034 34.0625 44.5728 34.0625C43.2783 34.0625 42.229 35.3217 42.229 36.875C42.229 38.4283 43.2783 39.6875 44.5728 39.6875C45.034 39.6875 45.4641 39.5276 45.8267 39.2515C46.18 38.9826 46.5812 38.75 47.0252 38.75C47.4132 38.75 47.7213 39.0771 47.6933 39.4641C47.545 41.5123 47.2954 43.5327 46.9494 45.5202C46.8816 45.9099 46.5764 46.2152 46.1866 46.283C43.9127 46.6787 41.5958 46.9484 39.2434 47.0846C38.8271 47.1087 38.479 46.7756 38.479 46.3587C38.479 45.9147 38.7116 45.5135 38.9805 45.1602C39.2566 44.7976 39.4165 44.3675 39.4165 43.9062C39.4165 42.6118 38.1573 41.5625 36.604 41.5625C35.0507 41.5625 33.7915 42.6118 33.7915 43.9062C33.7915 44.3675 33.9514 44.7976 34.2275 45.1602C34.4964 45.5135 34.729 45.9147 34.729 46.3587C34.729 46.8106 34.359 47.1757 33.9072 47.1628C31.9203 47.1065 29.957 46.955 28.0217 46.7127C27.7661 46.6807 27.5349 46.5449 27.3825 46.3373C27.23 46.1297 27.1697 45.8685 27.2157 45.6151C27.5818 43.5976 27.8454 41.5442 28.001 39.4604C28.0297 39.0756 27.7235 38.75 27.3377 38.75C26.8937 38.75 26.4925 38.9826 26.1393 39.2515C25.7766 39.5276 25.3465 39.6875 24.8853 39.6875C23.5908 39.6875 22.5415 38.4283 22.5415 36.875C22.5415 35.3217 23.5908 34.0625 24.8853 34.0625C25.3465 34.0625 25.7766 34.2224 26.1393 34.4985C26.4925 34.7674 26.8937 35 27.3377 35C27.7956 35 28.1675 34.6287 28.1612 34.1708C28.1332 32.1356 28.0023 30.1253 27.7735 28.1454C27.7406 27.861 27.8395 27.5772 28.0419 27.3748C28.2443 27.1724 28.5281 27.0736 28.8124 27.1064C30.4903 27.3003 32.1898 27.4239 33.9078 27.4741C34.3592 27.4873 34.729 27.1227 34.729 26.6712Z" fill="#9EFF00"/>
<defs>
<linearGradient id="paint0_linear_92_36148" x1="35.6665" y1="0" x2="35.6665" y2="70" gradientUnits="userSpaceOnUse">
<stop stop-color="#242424"/>
<stop offset="1" stop-color="#242424" stop-opacity="0"/>
</linearGradient>
<linearGradient id="paint1_linear_92_36148" x1="162.939" y1="-69.6023" x2="0.66651" y2="70" gradientUnits="userSpaceOnUse">
<stop offset="0.224072" stop-color="#9EFF00"/>
<stop offset="0.687143" stop-color="#9EFF00" stop-opacity="0"/>
</linearGradient>
<linearGradient id="paint2_linear_92_36148" x1="35.6665" y1="0" x2="35.6665" y2="70" gradientUnits="userSpaceOnUse">
<stop stop-color="#2E2E2E"/>
<stop offset="1" stop-color="#2E2E2E" stop-opacity="0"/>
</linearGradient>
</defs>
</svg>
