<svg width="71" height="70" viewBox="0 0 71 70" fill="none" xmlns="http://www.w3.org/2000/svg">
<rect x="0.833496" y="0.5" width="69" height="69" rx="7.5" fill="url(#paint0_linear_92_36159)"/>
<rect x="0.833496" y="0.5" width="69" height="69" rx="7.5" fill="url(#paint1_linear_92_36159)" fill-opacity="0.2"/>
<rect x="0.833496" y="0.5" width="69" height="69" rx="7.5" stroke="url(#paint2_linear_92_36159)"/>
<path d="M31.7972 37.0473C31.7972 36.9415 31.8513 36.8463 31.9378 36.7405L36.4041 31.2492C36.7393 30.826 37.3017 31.1116 37.1071 31.6301L35.6363 35.492H38.3939C38.5994 35.492 38.7833 35.6507 38.7833 35.8412C38.7833 35.947 38.7292 36.0634 38.6318 36.1585L34.1764 41.6392C33.8411 42.0625 33.268 41.7768 33.4627 41.269L34.9442 37.3965H32.1757C31.9703 37.3965 31.7972 37.2484 31.7972 37.0473ZM25.9792 44.7288H44.6878C46.9589 44.7288 48.0835 43.639 48.0835 41.4594V31.228C48.0835 29.0484 46.9589 27.9586 44.6878 27.9586H43.1954V26.5408C43.1954 25.7367 42.7196 25.25 41.887 25.25H38.6967C37.8748 25.25 37.399 25.7367 37.399 26.5408V27.9586H33.2788V26.5408C33.2788 25.7367 32.8029 25.25 31.9703 25.25H28.7801C27.9474 25.25 27.4823 25.7367 27.4823 26.5408V27.9586H25.9792C23.719 27.9586 22.5835 29.0484 22.5835 31.228V41.4594C22.5835 43.639 23.719 44.7288 25.9792 44.7288Z" fill="#9EFF00"/>
<defs>
<linearGradient id="paint0_linear_92_36159" x1="35.3335" y1="0" x2="35.3335" y2="70" gradientUnits="userSpaceOnUse">
<stop stop-color="#242424"/>
<stop offset="1" stop-color="#242424" stop-opacity="0"/>
</linearGradient>
<linearGradient id="paint1_linear_92_36159" x1="162.606" y1="-69.6023" x2="0.333503" y2="70" gradientUnits="userSpaceOnUse">
<stop offset="0.224072" stop-color="#9EFF00"/>
<stop offset="0.687143" stop-color="#9EFF00" stop-opacity="0"/>
</linearGradient>
<linearGradient id="paint2_linear_92_36159" x1="35.3335" y1="0" x2="35.3335" y2="70" gradientUnits="userSpaceOnUse">
<stop stop-color="#2E2E2E"/>
<stop offset="1" stop-color="#2E2E2E" stop-opacity="0"/>
</linearGradient>
</defs>
</svg>
